<svg xmlns="http://www.w3.org/2000/svg" width="1890" height="1417" viewBox="0 0 1890 1417">
  <defs>
    <style>
      .cls-1 {
        stroke: #000;
        stroke-width: 1px;
        fill-rule: evenodd;
      }
    </style>
  </defs>
  <path id="Elephant_1" data-name="Elephant 1" class="cls-1" d="M1252.86,298.965c-91.71-1.754-123.32,59.057-199.75,74.2H981.9q-86.836,10.86-173.7,21.715-39.077-1.806-78.163-3.618C683.21,401.373,650.488,433.346,615.4,456.4c-95.408,62.678-181.378,121.378-152.853,305.818,4.606,29.794,9.2,62.855,13.9,88.674,9.566,52.624-25.584,81.768-15.633,124.864q3.474,1.8,6.947,3.617,6.078-3.621,12.158-7.239c21.3-79.765,12.485-198.885,27.794-285.916q0.867,1.8,1.736,3.618c17.375,44.891-11.31,91.176-1.736,139.338,4.874,24.534,18.983,46.126,10.421,76.008-12.6,43.973-41.745,127.734-15.634,184.574,21.46,46.73,142.56,18.95,165.012-7.23-1.4-43.27-40.452-42.68-45.161-81.43,15.029-42.24,34-102.827,67.741-126.677-4.062,34.037-13.882,141.687,5.211,164.667,24.109,29.04,141.3,16.45,156.327-10.85,16.1-24.47-37.115-47.023-39.951-74.2,9.4-23.877,10.651-54.236,10.423-90.476,43.108-21.963,86.181-51.95,133.743-68.765q6.948,23.523,13.9,47.047-11.289,38.907-22.581,77.813-0.867,41.621-1.737,83.239c-5.581,27.46-21.7,47.2-13.9,81.44,25.9,18.9,138.017,57.21,152.857,14.47,14.87-42.83-39.08-52.23-29.53-95.91q16.5-37.992,33-76,5.2-34.381,10.42-68.768h1.74c9.24,56.2,46.09,90,62.53,133.912,9.19,24.536-5.14,54.306,0,77.816,24.8,18.88,134.79,30.26,151.11-3.62,10.49-40.76-38.02-51.2-48.63-77.814q-3.48-29.859-6.95-59.713-13.02-36.194-26.05-72.387-3.48-30.765-6.95-61.525-12.15-34.383-24.32-68.768c-10.64-52.331,23.28-116.465,46.9-137.526,11.38,29.943,95.81,45.156,123.32,65.143,16.01,11.626,14.57,39.417,20.85,61.529q17.37,55.178,34.73,110.385,9.555,19.9,19.11,39.807c4.72,26.108-8.84,49.482-22.58,57.911h-1.74c-2.1-18.627,6.04-25.482-5.21-41.623-29.57-9.45-49.58,7.936-67.74,25.336q0.87,6.33,1.74,12.666c6.52,9.9,17.77,9.191,31.27,7.239,5.79,64.552,95.43,45.49,112.9,5.427,20.47-46.962-13.73-98.5-5.21-155.626,13.58-91.115-11.21-151.2-33-213.534Q1443.925,509.8,1431.77,456.4C1413.49,410,1330.26,321.431,1285.86,304.4Q1269.36,301.683,1252.86,298.965Z"/>
</svg>
